<?xml version="1.0" encoding="UTF-8" standalone="no"?>
<svg
   width="16.3599mm"
   height="20.699591mm"
   viewBox="0 0 61.83269 78.234673"
   version="1.1"
   id="svg176"
   sodipodi:docname="logo_eclac.svg"
   inkscape:version="1.1.1 (3bf5ae0d25, 2021-09-20)"
   style="fill:none"
   xmlns:inkscape="http://www.inkscape.org/namespaces/inkscape"
   xmlns:sodipodi="http://sodipodi.sourceforge.net/DTD/sodipodi-0.dtd"
   xmlns="http://www.w3.org/2000/svg"
   xmlns:svg="http://www.w3.org/2000/svg"
   xmlns:rdf="http://www.w3.org/1999/02/22-rdf-syntax-ns#"
   xmlns:cc="http://creativecommons.org/ns#"
   xmlns:dc="http://purl.org/dc/elements/1.1/">
  <metadata
     id="metadata182">
    <rdf:RDF>
      <cc:Work
         rdf:about="">
        <dc:format>image/svg+xml</dc:format>
        <dc:type
           rdf:resource="http://purl.org/dc/dcmitype/StillImage" />
      </cc:Work>
    </rdf:RDF>
  </metadata>
  <defs
     id="defs180" />
  <sodipodi:namedview
     pagecolor="#ffffff"
     bordercolor="#666666"
     borderopacity="1"
     objecttolerance="10"
     gridtolerance="10"
     guidetolerance="10"
     inkscape:pageopacity="0"
     inkscape:pageshadow="2"
     inkscape:window-width="1920"
     inkscape:window-height="1017"
     id="namedview178"
     showgrid="false"
     inkscape:zoom="3.9441263"
     inkscape:cx="-9.7613507"
     inkscape:cy="38.918632"
     inkscape:window-x="-8"
     inkscape:window-y="-8"
     inkscape:window-maximized="1"
     inkscape:current-layer="svg176"
     units="mm"
     fit-margin-top="0"
     fit-margin-left="0"
     fit-margin-right="0"
     fit-margin-bottom="0"
     inkscape:pagecheckerboard="0"
     inkscape:document-units="mm"
     width="16.3599mm"
     height="20.69959mm" />
  <path
     d="m 6.0085452,44.700445 c 0,0.0503 -0.01572,0.08805 -0.1540621,0.09752 v 0.06602 h 1.0532591 v -0.06602 c -0.13834,-0.0095 -0.154054,-0.04722 -0.154054,-0.09752 v -1.739556 c 1.4588429,1.635714 1.6003419,1.704969 1.6003419,1.777302 0,0.03775 -0.02831,0.05978 -0.128928,0.05978 v 0.06602 h 1.050141 v -0.06602 c -0.138348,-0.0095 -0.154062,-0.04722 -0.154062,-0.09752 v -2.582523 c 0,-0.0503 0.01571,-0.08805 0.154062,-0.100683 v -0.06601 h -1.012411 v 0.06601 c 0.07231,0.0065 0.116308,0.03459 0.116308,0.100683 V 43.59634 C 7.9924462,43.168498 7.0335032,42.152515 7.0335032,42.089578 c 0,-0.03459 0.0283,-0.06602 0.154062,-0.07233 v -0.06601 H 5.8544831 v 0.06601 c 0.13834,0.0095 0.1540621,0.05038 0.1540621,0.100683 z"
     id="path132"
     inkscape:connector-curvature="0"
     style="clip-rule:evenodd;fill:#ffffff;fill-rule:evenodd;stroke-width:0.81" />
  <path
     d="m 11.16797,43.976953 0.452709,-0.968841 0.465345,0.968841 z m 2.115963,0.89019 v -0.0661 c -0.04406,0 -0.09436,-0.01571 -0.110079,-0.05346 -0.242109,-0.572508 -1.018656,-2.126412 -1.018656,-2.192427 0,-0.03775 0.01571,-0.05038 0.07233,-0.05662 v -0.0661 h -1.157004 v 0.0661 c 0.05654,0.0065 0.07225,0.01887 0.07225,0.05662 0,0.07549 -0.512487,1.154412 -0.9558,2.192427 -0.01571,0.03775 -0.06602,0.05346 -0.109998,0.05346 v 0.0661 h 0.830007 v -0.0661 c -0.02203,0 -0.07233,0 -0.07233,-0.04714 0,-0.05978 0.128952,-0.276858 0.16038,-0.37746 h 1.285875 c 0.03775,0.100602 0.16038,0.317682 0.16038,0.37746 0,0.04714 -0.0503,0.04714 -0.07233,0.04714 v 0.0661 z"
     id="path134"
     inkscape:connector-curvature="0"
     style="clip-rule:evenodd;fill:#ffffff;fill-rule:evenodd;stroke-width:0.81" />
  <path
     d="m 16.657502,42.536287 c -0.0158,0.02203 -0.04406,0.0503 -0.08181,0.0503 -0.0597,0 -0.2106,-0.0503 -0.399249,-0.09436 -0.188649,-0.04406 -0.42444,-0.09437 -0.669708,-0.09437 -0.807975,0 -1.616031,0.342873 -1.616031,1.248777 0,0.909063 0.808056,1.251936 1.616031,1.251936 0.704295,0 1.185354,-0.333396 1.238733,-0.333396 0.03459,0 0.06294,0.02827 0.08805,0.06286 l 0.06602,-0.04082 -0.525042,-0.758079 -0.0597,0.03775 c 0.0062,0.03459 0.0062,0.0597 0.0062,0.100602 0,0.07865 -0.37098,0.342873 -0.814293,0.342873 -0.415044,0 -0.896022,-0.191889 -0.896022,-0.663714 0,-0.468666 0.480978,-0.663714 0.896022,-0.663714 0.364743,0 0.763992,0.160461 0.763992,0.248508 0,0.03775 -0.01571,0.0661 -0.02195,0.09437 l 0.07541,0.03775 0.39933,-0.80838 z"
     id="path136"
     inkscape:connector-curvature="0"
     style="clip-rule:evenodd;fill:#ffffff;fill-rule:evenodd;stroke-width:0.81" />
  <path
     d="m 17.575556,42.429367 v 0.06602 c 0.109998,0.0065 0.176013,0.02203 0.176013,0.100683 v 2.10438 c 0,0.07549 -0.06602,0.09121 -0.176013,0.09752 v 0.06602 h 1.097226 v -0.06602 c -0.109998,-0.0065 -0.176013,-0.02203 -0.176013,-0.09752 v -2.10438 c 0,-0.07865 0.06602,-0.09437 0.176013,-0.100683 v -0.06602 z"
     id="path138"
     inkscape:connector-curvature="0"
     style="clip-rule:evenodd;fill:#ffffff;fill-rule:evenodd;stroke-width:0.81" />
  <path
     d="m 20.867396,42.397858 c -0.69174,0 -1.477683,0.37746 -1.477683,1.248777 0,0.877635 0.785943,1.251936 1.477683,1.251936 0.691659,0 1.477683,-0.37746 1.477683,-1.251936 0,-0.871317 -0.786024,-1.248777 -1.477683,-1.248777 z m 0,0.588222 c 0.421281,0 0.757674,0.254826 0.757674,0.663714 0,0.412047 -0.339552,0.663714 -0.757674,0.663714 -0.421281,0 -0.757755,-0.254826 -0.757755,-0.663714 -0.0032,-0.408888 0.336474,-0.663714 0.757755,-0.663714 z"
     id="path140"
     inkscape:connector-curvature="0"
     style="clip-rule:evenodd;fill:#ffffff;fill-rule:evenodd;stroke-width:0.81" />
  <path
     d="m 25.900979,42.599143 c 0,-0.07857 0.06602,-0.09436 0.157221,-0.100602 v -0.0661 h -0.974673 v 0.0661 c 0.08805,0.0065 0.154062,0.02203 0.154062,0.100602 v 1.091556 c -0.465264,-0.503334 -1.002942,-1.050651 -1.002942,-1.091556 0,-0.07857 0.06602,-0.09436 0.116316,-0.100602 v -0.0661 H 23.03366 v 0.0661 c 0.08173,0.0065 0.147744,0.02203 0.147744,0.100602 v 2.104461 c 0,0.07549 -0.06602,0.09121 -0.138348,0.09744 v 0.0661 h 0.946404 v -0.0661 c -0.07549,-0.0065 -0.144666,-0.02195 -0.144666,-0.09744 v -1.450143 l 0.01255,-0.0095 c 0.622566,0.72981 1.333098,1.362096 1.333098,1.487889 0,0.0661 -0.103761,0.07233 -0.16038,0.07233 v 0.0661 h 1.024974 v -0.0661 c -0.08805,-0.0065 -0.15714,-0.02203 -0.15714,-0.09752 v -2.107539 z"
     id="path142"
     inkscape:connector-curvature="0"
     style="clip-rule:evenodd;fill:#ffffff;fill-rule:evenodd;stroke-width:0.81" />
  <path
     d="m 27.762278,44.379604 v -0.547398 h 1.040688 c 0.04398,0 0.100602,0.02203 0.100602,0.129033 h 0.06602 v -0.720414 h -0.06917 c 0,0.103842 -0.05654,0.129033 -0.100602,0.129033 h -1.040688 v -0.449874 h 1.616031 c 0.04406,0 0.100683,0.02203 0.100683,0.132111 h 0.06602 v -0.742284 h -0.06602 c 0,0.100602 -0.05662,0.122634 -0.100683,0.122634 h -2.512053 v 0.0661 c 0.07541,0.0065 0.154062,0.02195 0.154062,0.100602 v 2.104461 c 0,0.07549 -0.07865,0.09121 -0.154062,0.09744 v 0.0661 h 2.46807 c 0.08805,0 0.116316,0.01571 0.154062,0.116397 h 0.05662 V 44.24118 h -0.06602 c -0.02203,0.100683 -0.07549,0.138429 -0.144666,0.138429 z"
     id="path144"
     inkscape:connector-curvature="0"
     style="clip-rule:evenodd;fill:#ffffff;fill-rule:evenodd;stroke-width:0.81" />
  <path
     d="m 30.255539,44.763301 0.0597,0.0158 c 0.03775,-0.03775 0.07865,-0.07549 0.128952,-0.07549 0.04398,0 0.66339,0.198126 1.19475,0.198126 0.845721,0 1.216701,-0.37746 1.216701,-0.80838 0,-0.962604 -1.810917,-0.556794 -1.810917,-0.953127 0,-0.24219 0.490455,-0.242271 0.631881,-0.242271 0.371061,0 0.764073,0.147906 0.764073,0.204525 0,0.02203 -0.0063,0.04398 -0.0063,0.05978 l 0.07233,0.03143 0.330075,-0.698301 -0.0597,-0.02203 c -0.02827,0.02203 -0.05978,0.06601 -0.122634,0.06601 -0.122634,0 -0.575343,-0.144666 -1.100385,-0.144666 -0.90234,0 -1.229337,0.481302 -1.229337,0.824175 0,0.927936 1.810998,0.509571 1.810998,0.940491 0,0.21708 -0.364743,0.239112 -0.503091,0.239112 -0.449631,0 -1.084671,-0.144747 -1.084671,-0.289413 0,-0.02835 0.0062,-0.04406 0.0062,-0.05978 l -0.07225,-0.03143 z"
     id="path146"
     inkscape:connector-curvature="0"
     style="clip-rule:evenodd;fill:#ffffff;fill-rule:evenodd;stroke-width:0.81" />
  <path
     d="m 37.933286,43.60573 c 0,0.424683 -0.254664,0.597699 -0.697977,0.597699 -0.443313,0 -0.697977,-0.173016 -0.697977,-0.597699 v -1.484649 c 0,-0.05038 0.01571,-0.08813 0.154062,-0.100683 v -0.0661 h -1.14129 v 0.0661 c 0.138348,0.0094 0.154062,0.0503 0.154062,0.100683 v 1.484649 c 0,0.975159 0.682263,1.296 1.527984,1.296 0.845802,0 1.528065,-0.320841 1.528065,-1.296 v -1.484649 c 0,-0.05038 0.01571,-0.08813 0.154062,-0.100683 v -0.0661 h -1.138212 v 0.0661 c 0.138348,0.0094 0.154062,0.0503 0.154062,0.100683 v 1.484649 z"
     id="path148"
     inkscape:connector-curvature="0"
     style="clip-rule:evenodd;fill:#ffffff;fill-rule:evenodd;stroke-width:0.81" />
  <path
     d="m 42.731159,42.599143 c 0,-0.07857 0.06602,-0.09436 0.154062,-0.100602 v -0.0661 h -0.974673 v 0.0661 c 0.08805,0.0065 0.154062,0.02203 0.154062,0.100602 v 1.091556 c -0.465345,-0.503334 -1.002942,-1.050651 -1.002942,-1.091556 0,-0.07857 0.06602,-0.09436 0.116316,-0.100602 v -0.0661 H 39.8606 v 0.0661 c 0.08173,0.0065 0.150903,0.02203 0.150903,0.100602 v 2.104461 c 0,0.07549 -0.06602,0.09121 -0.138348,0.09744 v 0.0661 h 0.946404 v -0.0661 c -0.07549,-0.0065 -0.144666,-0.02195 -0.144666,-0.09744 v -1.450143 l 0.0095,-0.0095 c 0.625644,0.72981 1.333098,1.362096 1.333098,1.487889 0,0.0661 -0.103761,0.07233 -0.16038,0.07233 v 0.0661 h 1.024974 v -0.0661 C 42.794015,44.79768 42.728,44.78217 42.728,44.70668 v -2.107539 z"
     id="path150"
     inkscape:connector-curvature="0"
     style="clip-rule:evenodd;fill:#ffffff;fill-rule:evenodd;stroke-width:0.81" />
  <path
     d="m 43.734101,42.429367 v 0.06602 c 0.109998,0.0065 0.176094,0.02203 0.176094,0.100683 v 2.10438 c 0,0.07549 -0.0661,0.09121 -0.176094,0.09752 v 0.06602 h 1.097226 v -0.06602 c -0.109998,-0.0065 -0.176013,-0.02203 -0.176013,-0.09752 v -2.10438 c 0,-0.07865 0.06602,-0.09437 0.176013,-0.100683 v -0.06602 z"
     id="path152"
     inkscape:connector-curvature="0"
     style="clip-rule:evenodd;fill:#ffffff;fill-rule:evenodd;stroke-width:0.81" />
  <path
     d="m 45.818636,44.700445 c 0,0.07549 -0.06602,0.09121 -0.144666,0.09752 v 0.06602 h 1.660095 c 0.820611,0 1.150686,-0.56619 1.150686,-1.220508 0,-0.651078 -0.333234,-1.217268 -1.150686,-1.217268 H 45.67397 v 0.06602 c 0.07865,0.0065 0.144666,0.02203 0.144666,0.100683 z m 0.74196,-1.739556 h 0.39933 c 0.565947,0 0.807975,0.18873 0.807975,0.685746 0,0.500175 -0.242028,0.688905 -0.807975,0.688905 h -0.39933 z"
     id="path154"
     inkscape:connector-curvature="0"
     style="clip-rule:evenodd;fill:#ffffff;fill-rule:evenodd;stroke-width:0.81" />
  <path
     d="m 50.173115,43.976953 0.452709,-0.968841 0.465345,0.968841 z m 2.112804,0.89019 v -0.0661 c -0.04398,0 -0.09428,-0.01571 -0.110079,-0.05346 -0.242028,-0.572508 -1.018656,-2.126412 -1.018656,-2.192427 0,-0.03775 0.01571,-0.05038 0.07233,-0.05662 v -0.0661 H 50.07251 v 0.0661 c 0.05662,0.0065 0.07233,0.01887 0.07233,0.05662 0,0.07549 -0.515646,1.154412 -0.9558,2.192427 -0.01571,0.03775 -0.06602,0.05346 -0.110079,0.05346 v 0.0661 h 0.830007 v -0.0661 c -0.02195,0 -0.07225,0 -0.07225,-0.04714 0,-0.05978 0.125712,-0.276858 0.160299,-0.37746 h 1.285956 c 0.03775,0.100602 0.160299,0.317682 0.160299,0.37746 0,0.04714 -0.0503,0.04714 -0.07225,0.04714 v 0.0661 z"
     id="path156"
     inkscape:connector-curvature="0"
     style="clip-rule:evenodd;fill:#ffffff;fill-rule:evenodd;stroke-width:0.81" />
  <path
     d="m 52.895849,44.763301 0.05978,0.0158 c 0.04082,-0.03775 0.07857,-0.07549 0.128871,-0.07549 0.04398,0 0.66339,0.198126 1.19475,0.198126 0.845721,0 1.216782,-0.37746 1.216782,-0.80838 0,-0.962604 -1.810998,-0.556794 -1.810998,-0.953127 0,-0.24219 0.493614,-0.242271 0.631962,-0.242271 0.37098,0 0.763992,0.147906 0.763992,0.204525 0,0.02203 -0.0063,0.04398 -0.0063,0.05978 l 0.07233,0.03143 0.333234,-0.698301 -0.0597,-0.02203 c -0.02827,0.02203 -0.05978,0.06601 -0.122634,0.06601 -0.122634,0 -0.575343,-0.144666 -1.100385,-0.144666 -0.90234,0 -1.229337,0.481302 -1.229337,0.824175 0,0.927936 1.810998,0.509571 1.810998,0.940491 0,0.21708 -0.364743,0.239112 -0.503091,0.239112 -0.446472,0 -1.084671,-0.144747 -1.084671,-0.289413 0,-0.02835 0.0062,-0.04406 0.0062,-0.05978 l -0.07225,-0.03143 z"
     id="path158"
     inkscape:connector-curvature="0"
     style="clip-rule:evenodd;fill:#ffffff;fill-rule:evenodd;stroke-width:0.81" />
  <path
     d="M 60.017126,55.266409 H 1.1541343 V 76.860936 H 60.017126 Z"
     stroke-miterlimit="3.8637"
     id="path160"
     inkscape:connector-curvature="0"
     style="fill:#292b3a;fill-opacity:1;stroke:#3b3b3b;stroke-width:0.405729;stroke-miterlimit:3.8637" />
  <path
     d="m 6.4141282,70.270776 c 0,0.96876 0.773437,1.76175 1.7197999,1.76175 0.943189,0 1.719817,-0.79299 1.719817,-1.76175 v -1.286288 h -1.147608 v 1.777148 H 7.5585692 v -8.987039 h 1.1475679 v 1.777221 h 1.147608 v -1.286523 c 0,-0.968841 -0.773469,-1.764666 -1.719817,-1.764666 -0.9463629,0 -1.7197999,0.795825 -1.7197999,1.764666 z"
     id="path162"
     inkscape:connector-curvature="0"
     style="clip-rule:evenodd;fill:#ffffff;fill-rule:evenodd;stroke-width:0.81" />
  <path
     d="M 21.210107,60.598153 H 18.91805 c -0.635121,0 -1.147608,0.525285 -1.147608,1.176444 v 8.987039 c 0,0.65124 0.509328,1.17612 1.147608,1.17612 h 2.292057 v -1.17612 H 18.91805 v -3.906962 h 1.719792 V 65.67823 H 18.91805 v -3.906792 h 2.292057 z"
     id="path164"
     inkscape:connector-curvature="0"
     style="clip-rule:evenodd;fill:#ffffff;fill-rule:evenodd;stroke-width:0.81" />
  <path
     d="m 29.126804,71.937756 h 1.147608 v -5.083082 h 1.147527 c 0.635121,0 1.144449,-0.525285 1.144449,-1.176444 v -3.906792 c 0,-0.651078 -0.509328,-1.176444 -1.144449,-1.176444 h -2.291976 v 11.342762 z m 1.144449,-10.163159 h 1.147527 v 3.906792 h -1.147527 z"
     id="path166"
     inkscape:connector-curvature="0"
     style="clip-rule:evenodd;fill:#ffffff;fill-rule:evenodd;stroke-width:0.81" />
  <path
     d="m 40.480007,71.937756 h 1.147527 v -5.083082 h 1.147608 v 5.083082 h 1.147608 v -9.672461 c 0,-0.968841 -0.773469,-1.764666 -1.719792,-1.764666 -0.946404,0 -1.719792,0.795825 -1.719792,1.764666 v 9.672461 z m 1.147527,-10.163159 h 1.147608 v 3.906792 h -1.147608 z"
     id="path168"
     inkscape:connector-curvature="0"
     style="clip-rule:evenodd;fill:#ffffff;fill-rule:evenodd;stroke-width:0.81" />
  <path
     d="m 52.119302,71.937756 h 3.439584 v -3.52286 h -1.147527 v 2.34998 H 53.263751 V 60.598153 h -1.144449 z"
     id="path170"
     inkscape:connector-curvature="0"
     style="clip-rule:evenodd;fill:#ffffff;fill-rule:evenodd;stroke-width:0.81" />
  <path
     d="m 16.940435,18.195787 c 0,-7.558758 6.108939,-13.6863274 13.645179,-13.6863274 7.536321,0 13.64526,6.1275694 13.64526,13.6863274 0,7.558839 -6.108939,13.683249 -13.64526,13.683249 -7.53624,0.0032 -13.645179,-6.12441 -13.645179,-13.683249 z m 5.542992,-7.552521 -1.537461,-1.4909671 c -2.156787,2.3151421 -3.499362,5.4103951 -3.552741,8.8264891 h 2.131596 c 0.05662,-2.83419 1.16964,-5.407236 2.958606,-7.335522 z m 1.842426,1.786698 -1.518588,-1.475253 c -1.710396,1.849635 -2.773035,4.309443 -2.826495,7.024077 h 2.112804 c 0.0503,-2.142126 0.889785,-4.082967 2.232279,-5.548824 z m 14.35887,13.321503 1.537461,1.491048 c 2.156787,-2.315142 3.499281,-5.410395 3.552741,-8.826489 h -2.131677 c -0.05338,2.831031 -1.1664,5.404077 -2.958525,7.335441 z M 30.3593,7.1045379 V 4.9529346 c -3.549663,0.059778 -6.762852,1.5287943 -9.102051,3.8753643 L 22.79471,10.319266 C 24.743975,8.3816649 27.410171,7.1643159 30.3593,7.1045379 Z m 0,2.56365 v -2.123253 c -2.820258,0.05978 -5.376375,1.223586 -7.243911,3.0857761 l 1.518588,1.475253 C 26.117978,10.646425 28.133258,9.7248069 30.3593,9.6681879 Z m 0,3.0166021 v -2.579364 c -2.09709,0.05978 -4.002372,0.927936 -5.404644,2.311983 l 1.842426,1.789857 c 0.936927,-0.896508 2.185056,-1.465857 3.562218,-1.522476 z m 0,18.757008 v -2.151522 c -2.949129,-0.05978 -5.615325,-1.277127 -7.56459,-3.214809 l -1.537461,1.491048 c 2.339199,2.34657 5.552388,3.815505 9.102051,3.875283 z m 0.452709,-21.336372 v 2.579364 c 1.377081,0.05662 2.625291,0.622809 3.562218,1.522476 l 1.845585,-1.789857 c -1.40859,-1.384047 -3.313872,-2.252205 -5.407803,-2.311983 z m -9.303255,14.43501 c -0.204363,-0.09436 -0.446472,-0.207603 -0.587898,-0.289413 -0.226395,-0.132111 -0.06917,-0.276777 -0.251586,-0.408888 -0.182331,-0.132111 -0.245187,-0.116397 -0.42444,-0.248508 -0.182331,-0.132111 0.144666,-0.113238 -0.213759,-0.254826 -0.119475,-0.04398 -0.141507,0.138429 -0.367902,0.09129 -0.226314,-0.04406 -0.213759,-0.462429 -0.358425,-0.462429 -0.405567,0 -0.465264,-0.531603 -0.490455,-0.887031 -0.04398,-0.62289 0.443313,-0.519048 0.443313,-0.519048 l 0.333315,0.138429 0.172854,-0.276858 c 0,0 0.06294,0 0.242109,0.02519 -0.295488,-0.962523 -0.462186,-1.981746 -0.481059,-3.035475 h -2.131596 c 0.05654,3.416094 1.395954,6.511347 3.552741,8.826489 L 22.483427,25.74831 C 22.13132,25.374007 21.807482,24.968197 21.508754,24.540436 Z m 1.603476,0.600777 c -0.03143,-0.01255 -0.06286,-0.01887 -0.09121,-0.02511 -0.125712,-0.02519 -0.226314,0.08173 -0.386694,0.141507 0.05346,0.06294 0.110079,0.122715 0.166617,0.185571 z m 2.933415,0.267381 -0.0095,0.01571 c -0.135189,0.220239 -0.201204,0.16362 -0.653913,0.210762 -0.45279,0.04406 -0.550233,0.27054 -0.867753,0.314604 -0.314442,0.04398 -0.270378,0 -0.543915,-0.264222 -0.122634,-0.116397 -0.279855,-0.235953 -0.437076,-0.336636 l -0.421281,0.408969 c 1.870695,1.86219 4.423653,3.029157 7.243911,3.088935 v -2.123253 c -1.578366,-0.03775 -3.056049,-0.515889 -4.310496,-1.314873 z m -5.291487,-3.865887 c 0.317601,-0.04406 0.427599,0.02519 0.723168,-0.03143 0.295569,-0.05354 0.119475,-0.748683 0.119475,-1.02546 0,-0.276858 0.286092,-0.54108 0.487296,-0.817857 0.03775,-0.05346 0.07233,-0.09436 0.110079,-0.132111 -0.05662,-0.364905 -0.09121,-0.739206 -0.100602,-1.116666 H 19.98077 c 0.02195,1.094634 0.207522,2.148363 0.534438,3.136077 0.05978,0.0032 0.132111,0.0032 0.23895,-0.01255 z M 34.94957,14.270122 c 0.100602,0.160461 0.471663,0.745524 0.748278,0.956286 0.32076,0.248508 0.748278,0.43092 0.977832,0.575667 0.229554,0.144666 -0.295569,0.176094 -0.09744,0.342792 0.198045,0.169938 0.616248,-0.29565 0.723087,-0.29565 0.10692,0 0.34587,0.05662 0.34587,0.368064 0,0.311364 -0.172935,0.559872 -0.02519,0.585063 0.138348,0.02203 0.597375,-0.59454 0.628884,-1.075761 -0.08181,-0.257985 -0.176094,-0.506493 -0.279855,-0.751842 -0.301806,-0.324 -0.732564,-0.393174 -0.74196,-0.578745 -0.0158,-0.314604 0.160299,-0.308286 0.273456,-0.336636 -0.279774,-0.471825 -0.606771,-0.9153 -0.974592,-1.32111 z m -6.354126,1.686015 c 0.119475,0.0032 0.257823,0 0.462186,-0.02511 0.4779,-0.05346 0.396171,-0.843048 0.732564,-0.742365 0.204363,0.05978 0.393012,0.03775 0.565947,-0.0032 v -2.057238 c -1.24821,0.05662 -2.386341,0.572508 -3.241539,1.393524 z m -2.30769,-0.399492 c 0.182331,-0.05346 0.37098,-0.09436 0.550152,-0.113238 0.748278,-0.07233 0.748278,0.556794 0.748278,0.556794 0,0 0.141507,-0.04406 0.355347,-0.06294 l -1.131894,-1.097793 c -0.194967,0.223317 -0.367821,0.462429 -0.521883,0.717174 z m -2.247993,2.422143 c 0.07857,-0.157302 0.141426,-0.346032 0.153981,-0.569349 0.02519,-0.437238 0.122634,-1.069524 0.82377,-1.116666 0.628803,-0.04406 -0.05662,-0.280017 0.270378,-0.383778 0.09752,-0.03143 0.223236,-0.07865 0.367902,-0.132111 0.220077,-0.452952 0.499851,-0.871317 0.830007,-1.24254 l -1.842426,-1.789776 c -1.257606,1.387206 -2.046789,3.214728 -2.100249,5.237379 h 1.496637 z M 23.6687,19.199296 c 0.02519,0.141507 0.289251,0.18873 0.154062,0.5913 l -0.0062,0.0158 c 0,0 -0.273537,0.141507 -0.273537,-0.02519 v -0.03459 c -0.0095,-0.16362 -0.09752,-0.37746 -0.07233,-0.670032 0.02203,-0.276777 0.179172,-0.48438 0.301806,-0.660555 h -1.229337 c 0.0095,0.330237 0.03775,0.657396 0.08489,0.975078 0.01571,0.0032 0.03459,0.0065 0.0503,0.0095 0.21384,0.04714 0.487377,0.402651 0.676026,0.402651 0.113157,0 0.147744,-0.03459 0.188649,-0.05662 v 0.03459 c 0,0.166698 0.273537,0.02519 0.273537,0.02519 l 0.0062,-0.0158 c 0.135189,0.07865 0.273537,0.226476 0.326997,0.415206 0.07233,0.264303 0.31752,1.050651 0.389853,1.167048 0.07233,0.113238 0.166617,0.471825 0.166617,0.748683 0,0.276777 0.223236,0.308205 0.248427,0.518967 0.02511,0.207603 0.09428,0.585063 0.09428,0.585063 l -0.204363,0.232794 1.641222,-1.594809 c -0.653994,-0.739206 -1.11618,-1.657746 -1.298511,-2.676888 -0.07857,-0.01887 -0.147744,-0.02827 -0.207522,-0.0094 -0.279774,0.09752 0.08489,0.641682 -0.194886,0.578745 -0.198126,-0.04406 -0.34587,-0.13527 -0.295569,-0.289413 0.0503,-0.150984 0.223236,0.02519 0.223236,-0.367983 0,-0.195048 -0.330156,-0.358587 -0.02511,-0.358587 0.07541,0 0.229473,0.166698 0.352107,0.166698 0.03775,0 0.07233,-0.0032 0.100602,-0.01571 -0.01887,-0.147825 -0.03143,-0.295731 -0.03775,-0.446715 -0.01571,-0.0094 -0.02827,-0.02203 -0.04082,-0.03143 h -0.374139 c -0.01264,0.06917 -0.07549,0.116397 -0.220158,0.122634 -0.496692,0.01887 -0.333234,0.286254 -0.358425,0.431001 -0.01879,0.147825 -0.465264,0.08805 -0.440154,0.232794 z m 1.465128,-1.591731 c -0.220077,-0.09436 -0.641358,-0.08173 -0.641358,0.138429 0,0.06917 0.02511,0.150984 0.0597,0.232794 h 0.553392 c 0.0063,-0.125874 0.01571,-0.248508 0.02827,-0.371223 z m 2.62845,3.019761 c -0.55647,0 -0.0063,-0.786348 -0.150903,-0.820935 -0.37098,-0.09445 -0.172935,0.415206 -0.320679,0.415206 -0.147825,0 -0.330156,-0.176175 -0.330156,-0.27054 0,-0.09436 0.07233,-0.336555 -0.122634,-0.336555 -0.198045,0 -0.427599,-0.113238 -0.600453,-0.166779 -0.157221,-0.0503 -0.349029,-0.07549 -0.556551,-0.113238 0.188649,0.839889 0.58482,1.601127 1.128735,2.220777 z m 0.776547,-0.931095 c -0.04398,-0.03459 -0.09428,-0.05978 -0.15714,-0.05978 -0.198126,0 -0.361584,0.629127 -0.512487,0.883953 l 0.745119,-0.723492 c -0.02511,-0.03143 -0.0503,-0.06602 -0.07549,-0.100683 z m -0.798579,-1.280205 c -0.02511,0.08489 -0.0597,0.173016 -0.13203,0.245349 -0.113157,0.116397 0.229554,0.150984 0.4779,0.103761 l 0.03143,-0.0065 c -0.02511,-0.110079 -0.04398,-0.226476 -0.05346,-0.342873 z M 30.3593,15.594391 c -0.122634,-0.04714 -0.242109,-0.04398 -0.207522,0.09129 0.06602,-0.01264 0.135189,-0.02203 0.207522,-0.02835 z m 0.697977,4.699539 c 0.09428,-0.116397 0.18549,-0.210762 0.198045,-0.346032 0.04714,-0.528444 0.591057,-0.141507 0.798579,-0.336555 0.204363,-0.191889 0.361584,-0.717174 0.182412,-0.846207 -0.182412,-0.125793 0.468423,-0.03143 0.418122,-0.248508 -0.0503,-0.216999 -0.550233,0.04722 -0.600534,-0.144666 -0.0503,-0.191889 -0.396171,-0.216999 -0.172935,-1.236222 0.05346,-0.235872 -0.443313,-0.04714 -0.525042,-0.679428 -0.01571,-0.128952 -0.50301,-0.0503 -0.641358,-0.166698 -0.122634,-0.103842 -0.182331,-0.179334 -0.201204,-0.239112 -0.08181,0.0032 -0.163539,0.0095 -0.245268,0.02203 0.04091,0.204525 0.04091,0.402651 -0.08173,0.481302 -0.198126,0.125793 -0.377298,0.103761 -0.528201,0.201285 -0.147825,0.09436 0.0503,0.213921 -0.122634,0.333477 -0.172935,0.119475 -0.499932,0.198126 -0.4779,0.367983 0.02519,0.166779 0.289251,0.239112 0.204363,0.333477 -0.08173,0.09752 -0.279855,-0.144747 -0.352107,0.02511 -0.07233,0.166779 0,0.629127 -0.198126,0.629127 -0.182331,0 0.0032,-0.314523 -0.254664,-0.412047 -0.0031,0.05346 -0.0062,0.10692 -0.0062,0.163539 0,0.141588 0.01256,0.283095 0.04082,0.415287 0.02835,-0.0032 0.05978,-0.0032 0.09437,0 0.223236,0.02511 -0.0503,0.128952 0.223236,0.128952 0.270378,0 0.191727,-0.48762 0.37098,-0.462429 0.179172,0.02519 0.100602,0.751761 -0.122634,0.91854 -0.223236,0.166698 -0.198045,-0.144747 -0.270378,0.02511 -0.0095,0.02835 -0.01887,0.05662 -0.02519,0.08497 0.06917,0.116397 0.150984,0.226476 0.242109,0.330237 0.257823,0 0.210681,-0.390015 0.380457,-0.440316 0.172935,-0.04722 -0.03143,-0.534762 0.396171,-0.581985 0.427599,-0.04714 0.641358,-0.16038 0.773388,0.129033 0.13203,0.286173 -0.295488,1.110348 -0.493614,1.135539 -0.446472,0.05346 -0.697977,-0.04722 -0.697977,0.04714 0,0.0095 -0.0032,0.01887 -0.0062,0.02835 0.348948,0.248508 0.776547,0.396333 1.235574,0.396333 0.16038,-0.0032 0.314442,-0.02203 0.465345,-0.05662 z m -0.245268,1.280205 c 0.166617,-0.116397 0.257823,-0.229635 0.320679,-0.361746 0.245268,-0.534681 -0.345789,-0.0065 -0.295488,-0.437238 l 0.0062,-0.03775 -0.02827,0.0032 v 0.833571 z m -0.452709,1.51308 c -0.08805,0.01571 -0.169776,0.0094 -0.223236,-0.03151 -0.166617,-0.122634 -0.194967,-0.707697 0.223236,-0.770634 v -1.547667 c -0.543915,-0.04714 -1.040688,-0.270459 -1.4337,-0.61965 l -1.807839,1.75527 c 0.855198,0.820935 1.993329,1.336824 3.241539,1.393443 z m 0.452709,-0.04722 c 0.08805,-0.05346 0.21384,-0.09752 0.418203,-0.110079 0.537597,-0.03459 0.474741,0.10692 0.631881,0.179253 0.606852,-0.16038 1.16964,-0.434079 1.666413,-0.795825 -0.103761,-0.16038 -0.270378,0.182493 -0.499932,0.13527 -0.229554,-0.04714 -0.270378,-0.317682 0,-0.534762 0.270378,-0.21384 0.493614,-0.317682 0.37098,-0.462348 -0.122634,-0.144747 -0.499851,0.03143 -0.625644,0.248508 -0.122634,0.21384 -0.07233,0.918459 -0.270378,0.94365 -0.198126,0.02519 -0.396171,0.0032 -0.723168,-0.09436 -0.798579,-0.239031 -0.748278,0.254826 -0.896022,0.333396 l -0.07233,0.03775 z M 30.3593,25.908769 c -0.18549,0.01571 -0.336474,0 -0.650835,-0.09121 -0.503091,-0.144747 -0.996705,-0.924858 -0.996705,-1.094715 0,-0.166698 0.198126,-0.239031 0.248427,-0.358587 0.0503,-0.119475 0.07541,-0.29565 0.122634,-0.440316 0.02827,-0.08813 0.160299,-0.226557 0.301806,-0.346032 -0.987228,-0.223317 -1.877013,-0.714096 -2.587545,-1.396683 l -1.638063,1.59165 c 0.282933,0.122715 0.08173,0.248508 0.295488,0.497016 0.226395,0.264222 0.471663,0.251667 0.653994,0.424683 0.07549,0.07233 0.09744,0.173016 0.09121,0.279936 1.204146,0.789588 2.631528,1.261413 4.159593,1.305396 z m 1.616031,0.261063 c -0.05662,-0.132111 -0.09744,-0.267381 -0.169776,-0.34911 -0.141507,-0.16362 -0.543915,-0.01264 -0.993546,0.04398 v 0.421524 c 0.396171,-0.0094 0.782865,-0.0503 1.163322,-0.116397 z m 2.527767,2.702079 c -0.138267,0 -0.289251,-0.05978 -0.440154,-0.138429 -0.169776,-0.09121 -0.336393,-0.207603 -0.4779,-0.298809 -0.286092,-0.18873 -0.679104,-0.556794 -0.905499,-0.871317 -0.223155,-0.308286 0.226395,-0.657477 -0.364662,-1.006587 -0.487377,0.100602 -0.987228,0.16038 -1.499715,0.173016 v 2.123253 c 0.9558,-0.01887 1.880172,-0.169857 2.757321,-0.424683 0.157221,0.100683 0.320679,0.21708 0.490455,0.308286 -1.024974,0.339714 -2.115963,0.534762 -3.247776,0.556794 v 2.151522 c 3.549663,-0.05978 6.759693,-1.528713 9.102051,-3.875364 l -1.537461,-1.490967 c -0.701136,0.698301 -1.493397,1.302237 -2.36115,1.792935 -0.540837,0.453033 -1.311147,1.00035 -1.51551,1.00035 z m 0.82377,-5.762745 c -0.814293,0.09752 -1.285875,-0.509571 -1.424223,-0.421443 -0.147825,0.09437 -0.147825,0.166698 -0.147825,0.248508 0,0.08173 1.267083,0.383697 1.597239,0.408888 0.06286,0.0032 0.119475,-0.01255 0.169776,-0.04406 z m 1.647459,-4.69314 c 0.01887,0.05346 0.03775,0.10692 0.04722,0.176175 0.02511,0.21384 0.798579,0.924777 0.798579,1.188999 0,0.264222 -0.430758,0.223317 -0.723168,0.264222 -0.591057,0.07865 -0.591057,0.261063 -0.773388,0.248508 -0.166698,-0.01264 -0.07549,-0.245349 -0.122634,-0.201366 -0.100602,0.09752 -0.380457,0.635445 -0.503091,0.830493 -0.13203,0.21384 -0.455868,0.386856 -0.691659,0.53784 -0.07857,0.107001 -0.16038,0.210762 -0.245268,0.311445 0.08181,0.157302 0.499932,-0.125793 0.666549,-0.173016 0.172935,-0.04714 0.172935,-0.390015 0.377298,-0.415206 0.204363,-0.02519 0.223236,0.09436 0.34587,0.390015 0.122634,0.295731 -0.122634,0.119556 -0.198126,0.896508 -0.01255,0.141588 -0.01255,0.330318 -0.160299,0.465588 l 0.03775,0.03459 c 0.100602,-0.116397 0.213759,-0.220239 0.37098,-0.239112 0.393012,-0.04714 0.220077,0.191889 0.279774,0.48762 0.02835,0.150984 0.10692,0.216999 0.176094,0.286254 1.185354,-1.368333 1.920996,-3.139317 1.971297,-5.092713 h -1.653777 z m 1.597239,-1.18908 c -0.06294,0.04722 -0.138348,0.07241 -0.226395,0.02835 -0.188649,-0.08805 0.0503,-0.40581 0.125793,-0.666873 -0.02519,-0.128952 -0.05346,-0.251667 -0.08489,-0.374301 -0.0661,0.179253 -0.323838,0.805221 -0.543915,0.849285 -0.229554,0.04722 -0.248427,0 -0.468504,0.21708 -0.210681,0.204444 -0.18549,0.440316 -0.330156,0.695142 h 1.581525 c -0.0063,-0.251667 -0.02203,-0.503253 -0.05346,-0.748683 z M 33.996929,14.46517 c -0.01571,0.0032 -0.02827,0.0032 -0.04398,0.0032 -0.198126,0 -0.295569,0.201285 -0.427599,0 -0.05978,-0.09121 0.0597,-0.173016 0.213759,-0.226476 -0.811134,-0.657477 -1.826631,-1.066365 -2.927097,-1.116666 v 1.950237 c 0.113157,-0.01264 0.220077,0.0032 0.320679,0.07233 0.650835,0.462429 0.603693,-0.559872 0.908658,-0.336555 0.411885,0.301968 -0.653994,0.632205 -0.433917,0.849285 0.223236,0.21708 0.23895,-0.191889 0.468504,-0.144666 0.229473,0.04714 0.147744,0.286254 0.50301,0.286254 0.352188,0 0.198126,-0.704619 0.870912,-0.798984 0.0503,-0.0065 0.09121,-0.0158 0.128952,-0.02519 l 0.191727,-0.18873 c -0.0094,-0.09436 -0.05338,-0.195048 0.245268,-0.239031 l 0.03459,-0.03467 z m 6.319539,-0.522126 c -0.106839,0.05662 -0.232632,0.09121 -0.374139,0.07233 -0.355266,-0.04722 -0.399249,-0.770715 -0.798579,-0.91854 -1.421064,-0.534762 -1.043847,-0.758079 -1.191591,-0.924777 -0.125793,-0.144747 -0.440154,-0.08813 -0.587898,-0.239112 l -0.301887,0.292572 c 0.0503,0.05346 0.103761,0.100683 0.169776,0.138429 0.493614,0.29565 0.198126,0.613332 0.396171,0.758079 0.198045,0.144666 0.13203,-0.09436 0.304965,0.07233 0.172935,0.169857 -0.0503,0.342873 0.147744,0.581904 0.198126,0.239112 0.34587,0.37746 0.396171,0.600858 0.02519,0.10692 0.02835,0.421443 0.03775,0.729729 0.07857,0.201366 0.150903,0.412047 0.21384,0.619731 0.07225,-0.122715 0.163458,-0.305127 0.298647,-0.305127 0.13203,0 0.0063,0.556713 -0.119475,1.015983 0.103761,0.500175 0.163458,1.012905 0.179172,1.541349 h 2.112804 c -0.03767,-1.434429 -0.345789,-2.796444 -0.883467,-4.035744 z m -1.421064,-3.501063 c 0.166617,0.173016 0.42444,0.361746 0.506169,0.465507 0.13203,0.166779 0.393012,0.559953 0.565947,0.902826 0.169776,0.336555 1.050084,1.512999 0.713691,1.846476 0.591057,1.324269 0.933768,2.783808 0.962037,4.321998 h 2.131677 C 43.718385,14.562694 42.378971,11.467441 40.222184,9.1522989 Z M 35.436947,8.2243629 c 0.160299,-0.06917 0.468423,0.07549 0.638199,-0.223317 0.13203,-0.229635 0.697977,0.176094 0.798579,0.04714 0.09752,-0.128952 -0.414963,-0.663714 0.377298,-0.311364 0.543915,0.239031 0,0.383697 0.02519,0.581904 0.02511,0.201285 0.172935,-0.09436 0.748278,0.607095 0.286092,0.34911 -0.13203,0.216999 0.172935,0.550476 0.304965,0.336555 0.37098,0.176175 0.575343,0.248508 0.07541,0.02511 0.100602,0.06602 0.103761,0.113238 l 1.03753,-1.009744 C 37.574861,6.4817289 34.361672,5.0127126 30.812009,4.9529346 v 2.1516033 c 1.656936,0.03459 3.222666,0.43092 4.624938,1.119825 z m -4.577796,-0.144666 c 0.08805,-0.04406 0.34587,0.07549 0.34587,0.201285 0,0.125793 -0.216918,0.18873 -0.34587,0.147825 -0.01887,-0.0065 -0.03459,-0.01887 -0.04714,-0.03459 v 1.273968 c 1.924155,0.0503 3.694248,0.7454431 5.099679,1.8779041 -0.201204,-0.229635 -0.377298,-0.415206 -0.437076,-0.440397 -0.172854,-0.07233 -0.295488,-0.27054 -0.122553,-0.390015 0.172854,-0.119556 -0.07549,-0.383778 0.02511,-0.559953 0.295569,0 0.204363,0.43092 0.402489,0.654318 0.198045,0.223317 0.270378,-0.05662 0.443313,0.141507 0.172854,0.201366 0.03143,0.710937 0.355266,0.855603 0.06286,0.02835 0.116316,0.06294 0.166617,0.09752 l 0.459027,-0.443556 c -0.07549,-0.311364 -0.18549,-0.679428 -0.402408,-0.795825 -0.32076,-0.166698 -0.276696,0.320841 -0.4779,0.191889 -0.371061,-0.239031 -0.295569,-1.0159831 -0.295569,-1.0159831 0,0 -0.547074,-0.09129 -0.330156,-0.846207 0.04091,-0.144666 -0.339552,-0.141507 -0.414963,-0.358587 -1.35513,-0.67311 -2.870559,-1.063206 -4.470876,-1.094634 v 0.588222 c 0.01255,-0.02203 0.02827,-0.04091 0.04714,-0.0503 z M 37.92389,25.631911 c -0.169776,0.05978 -0.342711,0.04406 -0.377298,-0.119475 -0.01571,-0.06926 -0.03143,-0.169857 -0.04714,-0.289413 l -0.962118,-0.934254 c -0.06602,0.0661 -0.135189,0.132111 -0.204363,0.195048 -0.01255,0.03775 -0.01571,0.08181 -0.0094,0.122715 0.0503,0.29565 0.650754,0.607095 0.675945,0.798903 0.02519,0.191889 -0.320679,0.657477 -0.320679,0.846207 0,0.125793 0.03143,0.399492 -0.0095,0.676269 0.496773,-0.34911 0.962118,-0.739206 1.389717,-1.166967 z m -0.128952,-1.635633 c 0.474741,-0.04406 0.518805,1.053729 0.474741,1.317951 -0.0031,0.0095 -0.0031,0.01887 -0.0062,0.02835 l 0.100602,0.100602 c 1.710396,-1.849554 2.773035,-4.309362 2.826495,-7.023996 h -2.112804 c -0.05346,2.138967 -0.889785,4.082886 -2.232279,5.548743 l 0.625644,0.607095 c 0.02203,-0.301968 0.103761,-0.556713 0.323838,-0.578745 z M 18.688577,22.53358 c 0.172854,-0.04406 0.13203,0.339714 0.308043,0.553635 0.179253,0.210762 0.223236,0.569349 0.166698,0.632205 -0.103761,0.119556 -0.150903,-0.232713 -0.295569,-0.585063 C 18.726242,22.778929 18.6791,22.621627 18.688577,22.53358 Z M 37.949,19.199296 c 0.421362,-0.04722 0.352188,0.248427 0.07549,0.248427 -0.279855,-0.0032 -0.493614,-0.201285 -0.07549,-0.248427 z m -1.471365,2.928474 c 0.172854,-0.119556 0.330075,0.03151 0.147744,0.128952 -0.179253,0.09752 -0.320679,-0.0094 -0.147744,-0.128952 z M 24.640214,19.998199 c 0.172935,-0.119475 0.493614,0.29889 0.23895,0.418365 -0.254664,0.119556 -0.411885,-0.298809 -0.23895,-0.418365 z m 5.344947,0.138429 c 0,-0.05978 0.07225,-0.110079 0.160299,-0.110079 0.08805,0 0.135189,0.01887 0.135189,0.08181 0,0.06286 -0.04714,0.144666 -0.135189,0.144666 -0.08805,-0.0032 -0.160299,-0.05346 -0.160299,-0.116397 z m 0.924291,-1.034856 c 0,-0.05354 0.09436,-0.07241 0.147825,-0.07241 0.05346,0 0.09744,0.04406 0.09744,0.09436 0,0.05354 -0.04398,0.09752 -0.09744,0.09752 -0.05662,0 -0.147825,-0.06602 -0.147825,-0.119475 z m -0.946323,-0.943731 c 0.248346,0.21708 0.172935,0.358587 -0.13203,0.311445 -0.304965,-0.04722 0.0094,-0.415206 0.13203,-0.311445 z m 1.974456,0.739206 c 0.05662,0 0.04398,0.207603 -0.0094,0.207603 -0.05662,0 -0.04406,-0.207603 0.0094,-0.207603 z m 1.440018,-4.428918 c 0.172854,0.07233 0.09744,0.440397 -0.147825,0.393174 -0.248346,-0.0503 -0.02511,-0.462429 0.147825,-0.393174 z m -0.396171,0.462348 c 0.122634,0.09752 -0.10692,0.51273 -0.254664,0.440397 -0.147825,-0.07233 0.13203,-0.534762 0.254664,-0.440397 z m 5.719005,-0.603936 c 0.172935,-0.04714 0.393012,0.830493 0.220077,0.902826 -0.235791,0.09752 -0.393012,-0.855603 -0.220077,-0.902826 z m -0.713691,-1.626237 c 0.0503,0 0.207522,0.251667 0.157221,0.251667 -0.23895,0.0032 -0.308124,-0.251667 -0.157221,-0.251667 z m -3.879738,-2.45673 c 0,0 0.443313,0.173016 0.697977,0.100683 0.254664,-0.07233 0.320679,-0.163539 0.320679,-0.163539 0,0 0.07549,0.342873 -0.182331,0.390015 -0.251586,0.04722 -0.836325,-0.327159 -0.836325,-0.327159 z m -0.87723,-2.1483631 c 0.150903,0 0.257823,0.270459 0.02203,0.270459 -0.235791,0.0032 -0.172935,-0.270459 -0.02203,-0.270459 z m 1.084752,1.821285 c 0.05338,0 0.207441,0.2515861 0.154062,0.2515861 -0.235872,0 -0.305046,-0.2515861 -0.154062,-0.2515861 z M 33.138653,5.8462836 c 0.06602,0.084969 -0.04406,0.2076033 -0.358425,0.2421903 -0.314442,0.03467 -0.518805,0.229635 -0.682263,0.06294 -0.163539,-0.1666983 0.380376,-0.1573023 0.531279,-0.3051273 0.154062,-0.147825 0.273537,-0.210762 0.509409,0 z m -1.383399,0.128952 c 0.128871,0 0.279774,0.6417633 0.213759,0.7361283 -0.06602,0.09744 -0.213759,0.02195 -0.474741,-0.02203 -0.257823,-0.04091 -0.141507,-0.24219 -0.358425,-0.24219 -0.213759,0 -0.342711,0.147825 -0.323838,-0.01887 0.02519,-0.169938 0.814293,-0.4530333 0.943245,-0.4530333 z"
     id="path172"
     inkscape:connector-curvature="0"
     style="fill:#ffffff;stroke-width:0.81" />
  <path
     d="m 30.551108,35.090686 c 0,0 -1.773252,-0.648 -3.515076,-0.682587 -1.741824,-0.03459 -4.640652,0.880794 -5.62788,1.02546 -1.19475,0.173016 -3.071763,-0.239031 -3.071763,-0.239031 0,0 1.024974,1.569618 4.640652,1.604205 2.8674,0.02835 4.983363,-1.569618 6.82263,-1.535031 -3.034017,1.192158 -4.093578,3.004047 -4.093578,3.004047 l 0.852039,0.204444 c 0,0 2.386341,-2.799603 4.024404,-2.934792 1.638063,0.138348 4.024404,2.934792 4.024404,2.934792 l 0.855198,-0.204444 c 0,0 -1.059561,-1.811889 -4.093578,-3.004047 1.839267,-0.03459 3.95523,1.563381 6.822549,1.535031 3.615678,-0.03459 4.643811,-1.604205 4.643811,-1.604205 0,0 -1.880172,0.412047 -3.071763,0.239031 -0.990387,-0.141588 -3.886056,-1.060047 -5.62788,-1.02546 -1.744902,0.03459 -3.584169,0.682587 -3.584169,0.682587 z m 11.023047,-6.926553 c 0,0 -0.383616,2.34657 -0.786024,3.107808 -0.990387,1.874826 -2.147391,2.45673 -2.147391,2.45673 0,0 2.137995,-0.905904 3.034017,-1.126143 2.663037,-0.648 4.131324,-1.604205 4.131324,-1.604205 -0.204363,0.51273 -1.770174,2.500713 -3.958389,3.551364 -1.638063,0.786348 -3.754026,-0.371223 -5.083965,-0.371223 0.411885,-0.37746 0.71685,-0.342873 1.980774,-2.598237 1.304748,-2.334015 2.829654,-3.416094 2.829654,-3.416094 z m 6.511347,-2.661174 c 0,0 -0.79542,3.595428 -2.455515,4.77819 -2.012202,1.434348 -4.505463,1.978506 -4.505463,1.978506 0.509328,-1.670301 0.613089,-3.47895 0.921213,-4.196205 0.594216,-1.380888 1.873854,-3.651966 1.873854,-3.651966 0,0 0.342711,2.425221 -0.304965,4.064094 -0.443313,1.126062 -1.024974,2.217618 -1.024974,2.217618 0,0 2.181978,-1.811889 2.832813,-2.32146 1.609794,-1.264491 2.663037,-2.868777 2.663037,-2.868777 z m 1.232496,-5.124141 c 0,0 -0.333315,3.123603 -1.638063,4.77819 -1.157004,1.468935 -2.147391,1.742634 -3.272967,3.038553 -0.03459,0 0.201204,-1.261332 0.166617,-2.047761 -0.03459,-0.786348 -0.23895,-2.217618 -0.13203,-3.309093 0.201204,-2.085507 0.751437,-3.350079 0.751437,-3.350079 0,0 0.4779,2.592 0.4779,3.686634 0,1.094634 -0.377298,3.038634 -0.377298,3.038634 0,0 1.197828,-2.151603 1.845504,-2.83419 0.641439,-0.679428 2.1789,-3.000888 2.1789,-3.000888 z m 0.06917,-5.938839 c 0.13203,0.682587 0.509328,2.491317 -0.06917,4.369221 -0.578502,1.877904 -1.468287,2.18619 -2.832813,4.74984 0.06917,-0.956286 0.09112,-1.362015 -0.342711,-2.324619 -1.295352,-2.865618 -1.021815,-5.290839 -1.021815,-5.290839 0,0 1.257606,1.962873 1.468287,2.661174 0.509328,1.708047 0.374139,3.004047 0.374139,3.004047 0,0 0.751437,-2.629746 1.024974,-3.551364 0.273537,-0.91854 0.987228,-1.909413 1.399113,-3.61746 z M 46.994509,9.5926959 c 0,0 0.223236,2.3308561 0.138348,3.1423951 -0.207522,1.944 -0.103761,3.821904 -0.103761,3.821904 0,0 -0.679104,-1.840158 -1.226178,-2.557332 -0.547074,-0.717255 -2.015361,-1.912572 -2.015361,-1.912572 0,0 0.308124,1.881063 1.572048,3.447603 1.669491,2.072871 1.845585,3.853332 1.845585,3.853332 0,0 1.125495,-2.488158 1.226178,-5.287761 0.109998,-3.038634 -1.436859,-4.5075691 -1.436859,-4.5075691 z m -2.556117,-2.695761 c 0.779706,1.909332 0.84888,3.7558081 1.226178,5.3222671 -0.509328,-0.786348 -0.911817,-1.623078 -1.572048,-2.047761 -1.329939,-0.8556031 -2.115963,-1.9093321 -2.115963,-1.9093321 -0.103761,0.169857 -0.03459,2.0477611 2.012202,3.4475221 1.477764,1.009746 2.424087,2.525904 2.424087,2.525904 0,-2.629665 0.408726,-2.085507 0.270378,-3.554523 C 46.416007,7.7839659 44.438392,6.8969349 44.438392,6.8969349 Z M 19.597154,28.164133 c 0,0 0.380457,2.34657 0.786024,3.107808 0.990387,1.874826 2.15055,2.45673 2.15055,2.45673 0,0 -2.137914,-0.905904 -3.034017,-1.126143 -2.663037,-0.648 -4.131243,-1.604205 -4.131243,-1.604205 0.204363,0.51273 1.770093,2.500713 3.958308,3.551364 1.638063,0.786348 3.754026,-0.371223 5.083965,-0.371223 -0.411885,-0.37746 -0.71685,-0.342873 -1.980774,-2.598237 -1.307907,-2.334015 -2.832813,-3.416094 -2.832813,-3.416094 z m -6.511347,-2.661174 c 0,0 0.795501,3.595428 2.452437,4.77819 2.012202,1.434348 4.505382,1.978506 4.505382,1.978506 -0.509328,-1.670301 -0.613089,-3.47895 -0.921213,-4.196205 -0.594216,-1.380888 -1.873854,-3.651966 -1.873854,-3.651966 0,0 -0.342711,2.425221 0.304965,4.064094 0.443313,1.126062 1.024974,2.217618 1.024974,2.217618 0,0 -2.181978,-1.811889 -2.832813,-2.32146 -1.606554,-1.264491 -2.659878,-2.868777 -2.659878,-2.868777 z m -1.232415,-5.124141 c 0,0 0.333234,3.123603 1.638063,4.77819 1.157004,1.468935 2.150469,1.742634 3.272967,3.038553 0.03459,0 -0.201285,-1.261332 -0.166698,-2.047761 0.03459,-0.786348 0.23895,-2.217618 0.132111,-3.309093 -0.201285,-2.085507 -0.751437,-3.350079 -0.751437,-3.350079 0,0 -0.474741,2.592 -0.474741,3.686634 0,1.094634 0.377217,3.038634 0.377217,3.038634 0,0 -1.194669,-2.151603 -1.845504,-2.83419 -0.647676,-0.679428 -2.181978,-3.000888 -2.181978,-3.000888 z m -0.06917,-5.938839 c -0.13203,0.682587 -0.509328,2.491317 0.06917,4.369221 0.578502,1.877904 1.468287,2.18619 2.832813,4.74984 -0.06917,-0.956286 -0.09121,-1.362015 0.34263,-2.324619 1.295352,-2.865618 1.021815,-5.290839 1.021815,-5.290839 0,0 -1.257606,1.962873 -1.468206,2.661174 -0.509328,1.708047 -0.374139,3.004047 -0.374139,3.004047 0,0 -0.748359,-2.629746 -1.024974,-3.551364 -0.273537,-0.91854 -0.987228,-1.909413 -1.399113,-3.61746 z m 2.3895,-4.8472831 c 0,0 -0.223236,2.3308561 -0.138348,3.1423951 0.207522,1.944 0.103761,3.821904 0.103761,3.821904 0,0 0.679104,-1.840158 1.226178,-2.557332 0.547074,-0.717255 2.01528,-1.912572 2.01528,-1.912572 0,0 -0.311202,1.881063 -1.571967,3.447603 -1.669491,2.072871 -1.842426,3.853332 -1.842426,3.853332 0,0 -1.125576,-2.488158 -1.229337,-5.287761 -0.10692,-3.038634 1.436859,-4.5075691 1.436859,-4.5075691 z m 2.559195,-2.695761 c -0.779706,1.909332 -0.84888,3.7558081 -1.226178,5.3222671 0.509409,-0.786348 0.908658,-1.623078 1.568889,-2.047761 1.329939,-0.8556031 2.115963,-1.9093321 2.115963,-1.9093321 0.103761,0.169857 0.03459,2.0477611 -2.012202,3.4475221 -1.477683,1.009746 -2.424087,2.525904 -2.424087,2.525904 0,-2.629665 -0.408726,-2.085507 -0.270378,-3.554523 0.270459,-2.8970461 2.247993,-3.7840771 2.247993,-3.7840771 z M 40.917002,5.7771096 c 1.40859,2.9725383 3.939516,4.5013324 3.939516,4.5013324 C 44.331476,6.3842049 40.917002,5.7771096 40.917002,5.7771096 Z m -20.772774,0 c -1.408509,2.9725383 -3.939516,4.5013324 -3.939516,4.5013324 0.528201,-3.8942371 3.939516,-4.5013324 3.939516,-4.5013324 z"
     id="path174"
     inkscape:connector-curvature="0"
     style="clip-rule:evenodd;fill:#ffffff;fill-rule:evenodd;stroke-width:0.81" />
</svg>
